# xmcd CD database file
#
# Track frame offsets:
#	150
#	13727
#	27175
#	38252
#	50427
#	68597
#	86520
#	104305
#	122060
#	131960
#	149292
#
# Disc length: 2242 seconds
#
# Revision: 0
# Processed by: cddbd v1.5.2PL0 Copyright (c) Steve Scherf et al.
# Submitted via: CDex 1.70beta2
#
DISCID=8c08c00b
DTITLE=Mr. Chill - Cold Testament
DYEAR=1900
DGENRE=Blues
TTITLE0=Ocean
TTITLE1=The Girl I Love
TTITLE2=Ugaly Way To Lose
TTITLE3=Weeping Willows
TTITLE4=Tired All The Time
TTITLE5=Rolling Thunder
TTITLE6=Relifion Of My Own
TTITLE7=Do Not Go Quietly Unto Your Grave
TTITLE8=Hope Out On That Stage
TTITLE9=Miss Me When I'm Gone
TTITLE10=Riding With Delilah
EXTD=
EXTT0=
EXTT1=
EXTT2=
EXTT3=
EXTT4=
EXTT5=
EXTT6=
EXTT7=
EXTT8=
EXTT9=
EXTT10=
PLAYORDER=
